<?xml version="1.0" encoding="utf-8"?>
<!-- Generator: Adobe Illustrator 27.5.0, SVG Export Plug-In . SVG Version: 6.00 Build 0)  -->
<svg version="1.1" xmlns="http://www.w3.org/2000/svg" xmlns:xlink="http://www.w3.org/1999/xlink" x="0px" y="0px"
	 viewBox="0 0 2500 2500" style="enable-background:new 0 0 2500 2500;" xml:space="preserve">
<g id="Background">
	<g>
		<g>
			<rect style="fill:#FFFFFF;" width="2500" height="2500"/>
		</g>
	</g>
</g>
<g id="Illustration">
	<g id="Chatbot_customer_service_5_">
		<path style="fill:#CADDFF;" d="M778.667,797.133C969.91,604.66,915.156,484.03,1046.013,394.915
			c201.349-137.121,577.138-19.151,798.84,169.456c271.536,231.002,411.631,652.784,252.041,1034.359
			c-169.958,406.363-617.143,617.306-1016.169,553.735c-356.33-56.769-706.612-337.602-741.71-674.424
			c-3.804-36.509-20.598-233.857,97.185-404.005C533.555,933.399,627.071,949.705,778.667,797.133z"/>
		<g>
			<path style="fill:#99B9FF;" d="M623.988,590.27c126.845-23.346,243.977,35.441,261.621,131.305
				c7.895,42.895-5.48,85.94-34.02,122.509l57.081,87.772L788.797,899.28c-29.096,17.866-63.321,31.224-100.916,38.144
				c-126.846,23.346-243.977-35.442-261.621-131.305C408.617,710.255,497.142,613.616,623.988,590.27z"/>
			<path d="M532.586,607.588c-1.065,0-2.111-0.513-2.751-1.464c-1.02-1.52-0.617-3.577,0.901-4.597
				c2.818-1.891,5.703-3.752,8.578-5.526c1.55-0.957,3.597-0.479,4.558,1.078c0.962,1.557,0.479,3.597-1.078,4.558
				c-2.803,1.732-5.617,3.543-8.362,5.388C533.864,607.407,533.222,607.588,532.586,607.588z"/>
			<path d="M651.296,915.843c-105.508,0-194.376-55.942-209.683-139.107c-10.238-55.632,13.746-113.051,65.803-157.534
				c1.395-1.188,3.482-1.022,4.67,0.367c1.188,1.391,1.024,3.482-0.366,4.67c-50.213,42.905-73.391,98.052-63.59,151.298
				c17.287,93.914,132.914,151.637,257.764,128.647c9.356-1.723,18.68-3.885,27.71-6.43c1.768-0.5,3.592,0.528,4.086,2.288
				c0.496,1.762-0.528,3.59-2.288,4.086c-9.227,2.6-18.751,4.811-28.31,6.572C688.199,914.176,669.491,915.843,651.296,915.843z"/>
			<path d="M927.28,905.187c-0.289,0-0.58-0.037-0.869-0.116l-118.495-32.202c-8.603,5.22-17.666,10.059-26.966,14.397
				c-1.662,0.774-3.627,0.054-4.401-1.602c-0.774-1.656-0.056-3.627,1.602-4.401c9.511-4.438,18.773-9.412,27.523-14.788
				c0.781-0.479,1.718-0.612,2.603-0.373l111.494,30.3l-52.347-80.495c-0.77-1.184-0.703-2.728,0.166-3.842
				c28.926-37.064,40.777-79.635,33.372-119.871c-8.341-45.318-39.624-83.674-88.088-107.996
				c-48.77-24.478-109.031-31.815-169.676-20.651c-14.305,2.631-28.428,6.275-41.98,10.831c-1.729,0.578-3.612-0.352-4.194-2.085
				s0.349-3.612,2.085-4.194c13.847-4.656,28.279-8.379,42.89-11.068c62.051-11.416,123.793-3.875,173.846,21.246
				c50.364,25.278,82.906,65.309,91.632,112.719c7.627,41.443-4.168,85.131-33.221,123.271l55.802,85.804
				c0.748,1.152,0.709,2.646-0.101,3.756C929.325,904.695,928.322,905.187,927.28,905.187z"/>
			<g>
				<path style="fill:#5479F7;" d="M680.307,718.28c-1.826,0-3.308-1.477-3.312-3.303c-0.004-1.831,1.475-3.317,3.303-3.321
					l159.565-0.377c0.004,0,0.007,0,0.009,0c1.826,0,3.308,1.477,3.312,3.303c0.004,1.831-1.475,3.316-3.303,3.321l-159.565,0.377
					C680.311,718.28,680.309,718.28,680.307,718.28z"/>
				<path style="fill:#5479F7;" d="M497.378,713.674c-1.82,0-3.301-1.471-3.312-3.293c-0.011-1.831,1.464-3.32,3.293-3.331
					l152.461-0.847c0.007,0,0.013,0,0.02,0c1.82,0,3.301,1.471,3.312,3.293c0.011,1.831-1.464,3.321-3.293,3.331l-152.461,0.847
					C497.391,713.674,497.385,713.674,497.378,713.674z"/>
				<path style="fill:#5479F7;" d="M832.972,759.773c-0.013,0-0.026,0-0.041,0l-208.474-2.574c-1.828-0.024-3.293-1.524-3.271-3.353
					c0.024-1.815,1.501-3.271,3.312-3.271c0.013,0,0.026,0,0.041,0l208.474,2.574c1.828,0.024,3.293,1.524,3.271,3.353
					C836.26,758.317,834.783,759.773,832.972,759.773z"/>
				<path style="fill:#5479F7;" d="M584.079,756.7c-0.013,0-0.026,0-0.041,0l-93.601-1.156c-1.828-0.024-3.293-1.525-3.271-3.353
					c0.024-1.816,1.501-3.271,3.312-3.271c0.013,0,0.026,0,0.041,0l93.601,1.156c1.828,0.024,3.293,1.524,3.271,3.353
					C587.368,755.245,585.891,756.7,584.079,756.7z"/>
				<path style="fill:#5479F7;" d="M838.919,795.176c-0.006,0-0.013,0-0.019,0l-76.386-0.472c-1.831-0.011-3.303-1.503-3.293-3.331
					c0.011-1.824,1.492-3.293,3.312-3.293c0.007,0,0.013,0,0.02,0l76.386,0.472c1.831,0.011,3.303,1.503,3.293,3.331
					C842.22,793.708,840.739,795.176,838.919,795.176z"/>
				<path style="fill:#5479F7;" d="M744.326,794.991c-0.017,0-0.037,0-0.054,0l-247.901-4.043c-1.829-0.03-3.288-1.537-3.258-3.366
					c0.03-1.831,1.512-3.318,3.366-3.258l247.901,4.043c1.828,0.03,3.288,1.537,3.258,3.366
					C747.608,793.544,746.131,794.991,744.326,794.991z"/>
			</g>
		</g>
		<g>
			<g>
				<path style="fill:#5479F7;" d="M1885.997,2067.761h-821.39c-35.396,0-60.469-28.548-56.003-63.764l202.252-1594.736
					c4.467-35.216,36.781-63.764,72.177-63.764l780.158-9.096c89.552,0,101.702,37.644,97.235,72.86l-202.252,1594.736
					C1953.708,2039.213,1921.393,2067.761,1885.997,2067.761z"/>
				<path style="fill:#FFFFFF;" d="M1836.571,2067.761h-821.39c-35.396,0-60.469-28.694-56.003-64.09L1161.43,400.799
					c4.466-35.396,36.781-64.09,72.177-64.09h821.39c35.396,0,60.469,28.694,56.003,64.09l-202.252,1602.873
					C1904.281,2039.068,1871.967,2067.761,1836.571,2067.761z"/>
				<path style="fill:#CADDFF;" d="M1005.985,2005.879l193.116-1530.473c1.031-8.171,8.491-14.795,16.662-14.795h825.807
					c8.172,0,13.96,6.624,12.929,14.796L1861.383,2005.88c-1.031,8.171-8.491,14.796-16.663,14.796h-825.807
					C1010.743,2020.675,1004.954,2014.051,1005.985,2005.879z"/>
				<path style="fill:#CADDFF;" d="M1634.015,418.229c-13.26,0-22.653-10.749-20.979-24.009
					c1.673-13.26,13.779-24.009,27.039-24.009s22.653,10.749,20.979,24.009C1659.381,407.48,1647.275,418.229,1634.015,418.229z"/>
				<path d="M1836.571,2071.073h-677.969c-1.828,0-3.312-1.484-3.312-3.312c0-1.829,1.484-3.312,3.312-3.312h677.969
					c33.73,0,64.634-27.449,68.891-61.19l202.253-1602.873c2.051-16.258-2.357-31.492-12.409-42.895
					c-9.934-11.266-24.249-17.47-40.309-17.47h-821.389c-33.728,0-64.634,27.451-68.891,61.192l-133.084,1054.702
					c-0.229,1.818-1.876,3.101-3.7,2.872c-1.816-0.229-3.101-1.886-2.872-3.7l133.084-1054.702
					c4.66-36.937,38.513-66.989,75.463-66.989h821.389c17.987,0,34.067,7.001,45.277,19.713
					c11.329,12.849,16.306,29.933,14.013,48.104l-202.253,1602.874C1907.374,2041.023,1873.521,2071.073,1836.571,2071.073z"/>
				<path d="M1844.722,2023.986h-268.827c-1.828,0-3.312-1.484-3.312-3.312c0-1.829,1.484-3.312,3.312-3.312h268.827
					c6.549,0,12.547-5.337,13.375-11.896l193.117-1530.473c0.382-3.019-0.418-5.824-2.249-7.9c-1.803-2.044-4.429-3.17-7.394-3.17
					h-825.807c-6.546,0-12.549,5.339-13.377,11.901l-133.656,1059.241c-0.229,1.815-1.889,3.096-3.7,2.872
					c-1.816-0.229-3.101-1.887-2.872-3.7l133.656-1059.244c1.233-9.757,10.182-17.694,19.95-17.694h825.807
					c4.895,0,9.285,1.923,12.362,5.412c3.107,3.523,4.474,8.179,3.853,13.11l-193.117,1530.473
					C1863.438,2016.049,1854.49,2023.986,1844.722,2023.986z"/>
			</g>
			<g>
				<g>
					<path d="M1113.067,1380.043c0.002-0.14,0.004-0.278,0.007-0.418c0.838-43.385,27.693-87.603,79.82-131.426
						c36.538-30.717,72.495-50.059,74.008-50.866c12.06-6.445,27.061-1.891,33.505,10.168c6.443,12.056,1.893,27.059-10.167,33.504
						c-35.135,18.845-126.52,80.635-127.658,139.575c-0.002,0.09-0.003,0.18-0.005,0.268c-0.306,18.697,5.227,33.245,16.914,44.47
						c27.977,26.87,84.716,29.731,104.217,28.566c13.65-0.815,25.376,9.588,26.191,23.238c0.812,13.633-9.588,25.374-23.238,26.191
						c-3.746,0.224-92.306,4.938-141.47-42.283C1123.337,1440.04,1112.53,1412.793,1113.067,1380.043z"/>
					<path style="fill:#5479F7;" d="M1288.583,1556.789l2.402-146.615c0.224-13.671,11.489-24.574,25.161-24.35
						c13.672,0.224,24.574,11.49,24.35,25.161l-2.403,146.615c-0.224,13.672-11.489,24.574-25.161,24.35
						C1299.26,1581.726,1288.359,1570.46,1288.583,1556.789z"/>
				</g>
				<g>
					<g>
						<path style="fill:#5479F7;" d="M1088.646,937.501h51.737c2.052,0,3.715-1.663,3.715-3.715V779.152
							c0-2.052-1.663-3.715-3.715-3.715h-51.737c-10.862,0-19.667,8.805-19.667,19.667v122.73
							C1068.979,928.696,1077.784,937.501,1088.646,937.501z"/>
						<g>
							<path style="fill:#FFFFFF;" d="M1857.477,937.501h-52.333V791.094h52.333c12.584,0,22.786,10.202,22.786,22.786v100.835
								C1880.263,927.3,1870.062,937.501,1857.477,937.501z"/>
							<path d="M1815.712,940.812h-10.568c-1.829,0-3.312-1.484-3.312-3.312V791.095c0-1.828,1.484-3.312,3.312-3.312h10.568
								c37.42,0,67.864,30.442,67.864,67.862v17.306C1883.575,910.37,1853.131,940.812,1815.712,940.812z M1808.456,934.188h7.256
								c33.767,0,61.24-27.471,61.24-61.238v-17.306c0-33.767-27.473-61.238-61.24-61.238h-7.256V934.188z"/>
						</g>
					</g>
					<g>
						<path style="fill:#FFFFFF;" d="M1828.808,858.251c0-157.321-158.575-320.057-354.187-320.057
							s-354.187,162.736-354.187,320.057c0,157.321,158.575,249.653,354.187,249.653S1828.808,1015.572,1828.808,858.251z"/>
						<path d="M1474.621,1111.215c-98.5,0-188.097-23.577-252.285-66.387c-68.832-45.907-105.215-110.424-105.215-186.577
							c0-78.026,38.192-158.737,104.781-221.435c69.813-65.734,159.563-101.935,252.718-101.935
							c93.155,0,182.905,36.201,252.718,101.935c66.59,62.698,104.781,143.409,104.781,221.435
							c0,76.153-36.383,140.67-105.215,186.577C1662.718,1087.639,1573.121,1111.215,1474.621,1111.215z M1474.621,541.505
							c-200.821,0-350.875,167.227-350.875,316.746c0,73.835,35.363,136.446,102.265,181.065
							c63.114,42.092,151.404,65.274,248.61,65.274s185.497-23.182,248.61-65.274c66.902-44.62,102.265-107.231,102.265-181.065
							C1825.497,708.732,1675.442,541.505,1474.621,541.505z"/>
					</g>
					<g>
						<path style="fill:#FFFFFF;" d="M1385.904,1155.168h177.434c77.769,0,140.813,63.044,140.813,140.813
							c0,51.379-5.012,102.636-14.964,153.042l-25.511,129.197c-17.828,90.293-97.019,155.376-189.055,155.376
							c-92.037,0-171.227-65.083-189.056-155.376l-25.51-129.197c-9.953-50.406-14.965-101.663-14.965-153.042
							C1245.091,1218.212,1308.135,1155.168,1385.904,1155.168z"/>
						<path d="M1474.621,1736.908c-93.347,0-174.222-66.469-192.304-158.045l-25.511-129.197
							c-9.97-50.5-15.027-102.207-15.027-153.685c0-79.471,64.653-144.125,144.125-144.125h177.434
							c79.471,0,144.125,64.653,144.125,144.125c0,51.478-5.057,103.186-15.027,153.685l-25.509,129.197
							C1648.843,1670.439,1567.968,1736.908,1474.621,1736.908z M1385.904,1158.48c-75.818,0-137.5,61.682-137.5,137.5
							c0,51.049,5.013,102.325,14.902,152.4l25.511,129.197c17.47,88.484,95.613,152.706,185.805,152.706
							c90.192,0,168.335-64.222,185.807-152.706l25.509-129.197c9.889-50.075,14.902-101.351,14.902-152.4
							c0-75.819-61.682-137.5-137.5-137.5H1385.904z"/>
					</g>
					<path style="fill:#CADDFF;" d="M1463.206,1467.164h22.831c47.036,0,85.167-38.131,85.167-85.167v-226.83h-193.165v226.83
						C1378.039,1429.034,1416.17,1467.164,1463.206,1467.164z"/>
					<path d="M1571.204,1158.48h-193.166c-1.828,0-3.312-1.484-3.312-3.312c0-1.828,1.484-3.312,3.312-3.312h193.166
						c1.829,0,3.312,1.484,3.312,3.312C1574.516,1156.997,1573.033,1158.48,1571.204,1158.48z"/>
					<path d="M1236.497,811.036h341.073c35.432,0,64.156,30.952,64.156,69.133v45.102c0,29.12-15.543,59.981-42.348,65.016
						c-94.519,17.757-290.17,17.757-384.689,0c-26.805-5.036-42.348-35.896-42.348-65.016v-45.102
						C1172.342,841.987,1201.066,811.036,1236.497,811.036z"/>
					<g>
						<ellipse style="fill:#5479F7;" cx="1508.671" cy="901.804" rx="21.494" ry="23.162"/>
						<ellipse style="fill:#5479F7;" cx="1279.991" cy="901.804" rx="21.494" ry="23.162"/>
					</g>
				</g>
				<g>
					<path style="fill:#5479F7;" d="M1615.348,1037.98c-1.393,0-2.687-0.882-3.146-2.277c-0.571-1.736,0.373-3.61,2.111-4.181
						l108.9-35.852c49.646-16.347,79.937-65.708,72.026-117.372l-7.842-51.209c-0.278-1.809,0.964-3.5,2.771-3.775
						c1.835-0.278,3.5,0.966,3.776,2.771l7.842,51.209c8.405,54.877-23.769,107.306-76.502,124.669l-108.9,35.852
						C1616.04,1037.926,1615.69,1037.98,1615.348,1037.98z"/>
					<path style="fill:#5479F7;" d="M1841.936,805.043c-1.466,0-2.807-0.981-3.2-2.465c-0.179-0.675-18.434-68.252-66.428-133.82
						c-44.1-60.255-123.118-131.182-249.296-126.665c-1.781,0.054-3.364-1.365-3.426-3.193c-0.065-1.826,1.365-3.362,3.193-3.426
						c56.966-2.018,109.469,10.708,155.913,37.838c37.107,21.679,70.445,52.531,99.086,91.704
						c48.671,66.568,67.181,135.182,67.362,135.868c0.468,1.768-0.587,3.582-2.355,4.05
						C1842.501,805.009,1842.216,805.043,1841.936,805.043z"/>
					<path style="fill:#99B9FF;" d="M1749.047,881.518c-5.834-46.112,23.712-87.829,65.993-93.179
						c4.636-0.587,21.819-1.024,26.337-0.721c36.685,2.463,55.589,33.472,60.783,74.527c5.602,44.274-11.271,85.645-50.858,93.515
						c-1.643,0.326-13.364,1.264-15.061,1.269C1789.902,957.084,1754.881,927.629,1749.047,881.518z"/>
					<path style="fill:#5479F7;" d="M1767.339,880.017c-4.93-46.217,25.427-87.348,67.805-91.868
						c42.378-4.52,80.728,29.281,85.658,75.498c4.93,46.217-25.427,87.348-67.804,91.868
						C1810.619,960.035,1772.269,926.234,1767.339,880.017z"/>
					<path style="fill:#5479F7;" d="M1639.906,1050.8l-84.818,8.056c-3.243,0.308-6.148-2.093-6.456-5.337l-2.478-26.094
						c-0.308-3.243,2.094-6.149,5.337-6.457l84.818-8.056c3.243-0.308,6.148,2.093,6.456,5.336l2.479,26.094
						C1645.55,1047.587,1643.149,1050.492,1639.906,1050.8z"/>
				</g>
				<g>
					<polygon style="fill:#99B9FF;" points="1292.144,1655.204 1622.387,1655.204 1494.114,1308.325 1163.872,1308.325 					"/>
					<path d="M1622.388,1658.517h-330.244c-1.387,0-2.626-0.863-3.107-2.163l-128.272-346.88c-0.375-1.018-0.231-2.152,0.39-3.042
						c0.619-0.888,1.632-1.419,2.717-1.419h330.242c1.387,0,2.626,0.863,3.107,2.163l128.274,346.88
						c0.375,1.018,0.231,2.152-0.39,3.042C1624.486,1657.987,1623.472,1658.517,1622.388,1658.517z M1294.451,1651.893h323.18
						l-125.824-340.256h-323.178L1294.451,1651.893z"/>
				</g>
				<g>
					<path d="M1701.167,1569.074c48.509,0.001,114.14-6.907,156.209-39.16c24.248-18.591,38.412-43.134,42.099-72.949
						c16.556-133.857-144.976-210.472-151.86-213.668c-12.402-5.759-27.124-0.371-32.882,12.031
						c-5.753,12.392-0.38,27.099,12,32.868c1.358,0.635,135.721,64.677,123.599,162.692c-2.025,16.377-9.576,29.373-23.084,39.729
						c-46.255,35.463-168.247,34.571-203.208,29.66c-13.538-1.904-20.178,7.067-22.08,20.608
						c-1.903,13.541,8.487,26.472,22.08,27.968C1643.655,1571.01,1666.628,1569.073,1701.167,1569.074z"/>
					<path d="M1518.431,1602.768h47.548c25.978,0,47.517-19.493,50.102-45.343l1.655-16.546
						c1.412-14.129-3.241-28.269-12.769-38.797c-9.528-10.528-23.135-16.566-37.334-16.566h-75.842
						c-13.674,0-24.759,11.085-24.759,24.759c0,13.674,11.085,24.759,24.759,24.759h75.842c0.139,0,0.37,0,0.62,0.275
						c0.248,0.275,0.225,0.505,0.211,0.642l-1.655,16.546c-0.042,0.429-0.399,0.752-0.829,0.752h-47.548
						c-13.674,0-24.759,11.085-24.759,24.759S1504.757,1602.768,1518.431,1602.768z"/>
				</g>
			</g>
		</g>
		<g>
			<path style="fill:#99B9FF;" d="M881.975,478.377l6.554,20.913l23.857-1.957c2.385,4.571,5.109,8.888,8.16,12.906l-11.913,20.728
				l16.133,14.834l19.687-13.626c4.302,2.725,8.822,5.088,13.515,7.065l0.047,23.943l21.388,4.781l10.222-21.612
				c5.041,0.21,10.141-0.015,15.255-0.666l12.009,20.707l20.913-6.554l-1.956-23.857c4.57-2.384,8.887-5.11,12.906-8.159
				l20.728,11.913l14.834-16.133l-13.626-19.688c2.725-4.301,5.089-8.822,7.066-13.514l23.942-0.047l4.781-21.389l-21.613-10.222
				c0.211-5.041-0.015-10.141-0.666-15.255l20.707-12.009l-6.554-20.913l-23.857,1.957c-2.385-4.571-5.11-8.887-8.16-12.906
				l11.913-20.728l-16.132-14.834l-19.687,13.625c-4.301-2.725-8.822-5.088-13.515-7.066l-0.047-23.942l-21.388-4.781
				l-10.222,21.612c-5.041-0.21-10.141,0.015-15.254,0.666l-12.01-20.706l-20.913,6.554l1.957,23.857
				c-4.571,2.385-8.887,5.11-12.907,8.16L917.4,370.122l-14.834,16.132l13.626,19.686c-2.726,4.302-5.088,8.823-7.066,13.515
				l-23.943,0.047l-4.781,21.388l21.612,10.221c-0.211,5.041,0.015,10.141,0.666,15.255L881.975,478.377z M976.568,401.093
				c29.733-9.318,61.39,7.232,70.708,36.965c9.318,29.733-7.231,61.39-36.965,70.708c-29.733,9.318-61.391-7.232-70.708-36.965
				C930.285,442.068,946.834,410.411,976.568,401.093z"/>
			<g>
				<path style="fill:#CADDFF;" d="M695.773,434.709l4.346,13.87l15.821-1.298c1.581,3.031,3.389,5.894,5.411,8.559l-7.901,13.746
					l10.699,9.838l13.056-9.036c2.853,1.807,5.851,3.374,8.963,4.685l0.031,15.878l14.184,3.171l6.779-14.333
					c3.343,0.139,6.725-0.01,10.117-0.441l7.964,13.732l13.869-4.346l-1.297-15.821c3.031-1.581,5.894-3.389,8.559-5.411
					l13.746,7.901l9.838-10.699l-9.036-13.056c1.807-2.853,3.375-5.85,4.686-8.962l15.878-0.031l3.17-14.184l-14.333-6.779
					c0.14-3.343-0.01-6.725-0.441-10.117l13.732-7.964l-4.346-13.869l-15.821,1.298c-1.582-3.031-3.389-5.894-5.412-8.559
					l7.901-13.746l-10.699-9.838l-13.056,9.036c-2.852-1.807-5.851-3.375-8.963-4.686l-0.031-15.878l-14.184-3.17l-6.779,14.333
					c-3.343-0.14-6.725,0.01-10.116,0.441l-7.964-13.732l-13.869,4.346l1.298,15.821c-3.031,1.581-5.894,3.388-8.559,5.411
					l-13.746-7.901l-9.838,10.699l9.037,13.056c-1.808,2.853-3.375,5.851-4.686,8.963l-15.878,0.031l-3.171,14.184l14.333,6.779
					c-0.14,3.343,0.01,6.725,0.442,10.117L695.773,434.709z M758.505,383.455c19.719-6.18,40.713,4.796,46.892,24.514
					c6.18,19.718-4.796,40.713-24.514,46.892c-19.718,6.179-40.713-4.796-46.892-24.514
					C727.811,410.629,738.786,389.635,758.505,383.455z"/>
			</g>
		</g>
		<g>
			<g>
				<path d="M1857.42,550.874c-0.172,0-0.345-0.013-0.52-0.041c-1.807-0.285-3.04-1.979-2.755-3.786l2.674-16.961
					c0.285-1.809,1.993-3.038,3.786-2.756c1.807,0.285,3.04,1.979,2.755,3.786l-2.674,16.961
					C1860.43,549.71,1859.022,550.874,1857.42,550.874z"/>
				<path d="M1848.06,610.241c-0.173,0-0.345-0.013-0.52-0.041c-1.807-0.285-3.04-1.98-2.756-3.786l2.674-16.961
					c0.285-1.807,1.992-3.042,3.786-2.756c1.807,0.285,3.04,1.979,2.756,3.786l-2.674,16.961
					C1851.07,609.076,1849.662,610.241,1848.06,610.241z"/>
				<path d="M1833.238,568.476c-0.188,0-0.377-0.015-0.569-0.047l-16.67-2.883c-1.803-0.313-3.01-2.027-2.7-3.829
					c0.313-1.803,2.008-3.01,3.83-2.7l16.67,2.883c1.803,0.313,3.01,2.027,2.7,3.829
					C1836.218,567.339,1834.818,568.476,1833.238,568.476z"/>
				<path d="M1891.586,578.561c-0.188,0-0.377-0.015-0.569-0.048l-16.67-2.881c-1.801-0.313-3.01-2.027-2.7-3.829
					c0.313-1.803,2.007-3.006,3.829-2.7l16.67,2.881c1.8,0.313,3.01,2.027,2.7,3.829
					C1894.566,577.424,1893.167,578.561,1891.586,578.561z"/>
			</g>
			<g>
				<path d="M1771.359,1724.548c-0.172,0-0.345-0.013-0.519-0.041c-1.807-0.285-3.04-1.979-2.756-3.786l2.676-16.961
					c0.282-1.807,1.984-3.045,3.786-2.756c1.807,0.285,3.04,1.979,2.756,3.786l-2.676,16.961
					C1774.369,1723.384,1772.961,1724.548,1771.359,1724.548z"/>
				<path d="M1761.999,1783.915c-0.172,0-0.345-0.013-0.52-0.041c-1.807-0.285-3.04-1.98-2.756-3.786l2.676-16.961
					c0.282-1.807,1.984-3.04,3.786-2.756c1.807,0.285,3.04,1.979,2.756,3.786l-2.676,16.961
					C1765.009,1782.75,1763.601,1783.915,1761.999,1783.915z"/>
				<path d="M1747.179,1742.15c-0.188,0-0.377-0.015-0.569-0.047l-16.672-2.883c-1.803-0.313-3.01-2.027-2.7-3.829
					c0.313-1.803,2.018-3.01,3.829-2.7l16.672,2.883c1.803,0.313,3.01,2.027,2.7,3.83
					C1750.159,1741.014,1748.76,1742.15,1747.179,1742.15z"/>
				<path d="M1805.527,1752.235c-0.188,0-0.377-0.015-0.569-0.047l-16.672-2.881c-1.801-0.313-3.01-2.027-2.7-3.829
					c0.313-1.803,2.018-3.006,3.829-2.7l16.672,2.881c1.8,0.313,3.01,2.027,2.7,3.829
					C1808.507,1751.098,1807.108,1752.235,1805.527,1752.235z"/>
			</g>
		</g>
		<g>
			<g>
				<g>
					<path style="fill:#FFFFFF;" d="M1579.861,1811.463c5.396-0.76,11.401-0.331,18,1.876l78.37,17.24
						c0,0-17.308,21.261-35.343,22.476c9.77,15.174,15.364,28.662,15.364,28.662s34.725,8.619,41.887,11.798
						c7.155,3.177,17.438,6.678,22.455,14.139c5.03,7.482,4.447,18.75,4.447,18.75l-83.174-5.229l-74.651-62.497l-136.968,67.956
						l6.087-84.393L1579.861,1811.463z"/>
					<path d="M1430.25,1929.947c-0.647,0-1.289-0.19-1.846-0.563c-0.988-0.662-1.544-1.803-1.458-2.987l6.087-84.394
						c0.106-1.471,1.169-2.693,2.609-3.002l143.525-30.778c0.078-0.017,0.155-0.03,0.233-0.041
						c6.244-0.88,12.748-0.222,19.341,1.958l78.201,17.205c1.123,0.246,2.038,1.059,2.415,2.143c0.379,1.087,0.168,2.29-0.558,3.183
						c-0.675,0.83-15.342,18.634-32.456,22.856c6.497,10.671,10.736,19.831,12.299,23.374c7.004,1.757,34.315,8.69,40.84,11.588
						c0.979,0.436,2.018,0.875,3.094,1.333c7.083,3.006,15.898,6.745,20.767,13.985c5.583,8.304,5.033,20.262,5.007,20.767
						c-0.045,0.884-0.442,1.712-1.104,2.301c-0.66,0.589-1.52,0.886-2.411,0.834l-83.176-5.229
						c-0.705-0.045-1.378-0.313-1.919-0.765l-72.989-61.109l-135.029,66.995C1431.257,1929.833,1430.752,1929.947,1430.25,1929.947z
						 M1643.159,1917.939l78.51,4.936c-0.226-3.562-1.042-9.235-3.823-13.371c-3.769-5.606-11.579-8.92-17.856-11.583
						c-1.11-0.472-2.182-0.927-3.193-1.376c-5.66-2.512-31.762-9.233-41.342-11.611c-1.02-0.254-1.859-0.974-2.262-1.945
						c-0.054-0.134-5.609-13.416-15.087-28.141c-0.636-0.985-0.703-2.232-0.175-3.28c0.526-1.048,1.565-1.738,2.736-1.818
						c11.73-0.789,23.467-11.21,29.267-17.164l-72.782-16.012c-0.114-0.026-0.226-0.056-0.338-0.093
						c-5.626-1.882-11.131-2.473-16.375-1.753l-140.976,30.231l-5.492,76.133l131.776-65.38c1.177-0.584,2.59-0.418,3.599,0.427
						L1643.159,1917.939z"/>
				</g>
				<path style="fill:#5479F7;" d="M1575.895,1882.868c0,0-49.669-77.276-49.743-77.391c-3.91-6.081-36.567,3.628-42.61,3.978
					c-21.662,1.254-44.18-2.274-65.774-4.669c-46.102-5.112-91.948-12.53-137.309-22.222c-37.042-7.915-74.3-17.557-107.123-36.463
					c-43.212-24.89-65.887-63.677-83.193-108.927c-13.079-34.197-28.684-62.777-48.195-94.079
					c-28.88-46.335-76.829-84.355-116.632-104.101c-61.842-30.678-133.75-45.494-202.266-31.824
					c-132.209,26.379-222.627,103.439-222.627,103.439c-71.935,57.427-204.801,257.672-157.429,354.092
					c58.098,118.25,214.709,49.067,214.709,49.067s15.207,24.826-17.469,100.315c-39.694,91.703,17.825,103.978,17.825,103.978
					c133.686,65.358,487.838,50.751,457.639-22.234c-32.326-78.13-32.868-177.171-32.868-177.171
					c44.678,44.187,141.463,53.525,141.463,53.525s81.696,7.728,133.585-1.104
					C1548.232,1928.022,1575.895,1882.868,1575.895,1882.868z"/>
				<g>
					<path d="M559.705,1856.091c-1.373,0-2.656-0.86-3.131-2.229c-44.257-128.06-23.702-231.505-23.488-232.535
						c0.371-1.792,2.135-2.945,3.911-2.573c1.792,0.369,2.943,2.122,2.575,3.911c-0.207,1.013-20.368,102.785,23.264,229.032
						c0.597,1.729-0.319,3.616-2.049,4.213C560.429,1856.033,560.063,1856.091,559.705,1856.091z"/>
					<path d="M980.202,1922.661c-0.835,0-1.669-0.313-2.314-0.942c-69.188-67.568-117.354-224.51-119.371-231.158
						c-0.53-1.751,0.457-3.601,2.208-4.131c1.753-0.528,3.601,0.457,4.131,2.208c0.489,1.613,49.693,161.968,117.658,228.342
						c1.309,1.279,1.335,3.375,0.056,4.683C981.922,1922.327,981.062,1922.661,980.202,1922.661z"/>
				</g>
			</g>
			<g>
				<g>
					<path style="fill:#FFFFFF;" d="M798.549,1094.018c26.723,0.124,51.342,14.57,64.758,37.681
						c6.214,10.705,11.861,20.681,13.003,23.498c2.602,6.419,8.327,27.981,29.327,48.767c2.074,2.052,2.366,5.295,0.57,7.594
						l-13.452,17.21c-0.928,1.188-1.312,2.699-1.053,4.184c1.6,9.177,9.614,42.487,7.244,48.496
						c-5.024,12.737-35.48,16.191-44.505,16.94c-1.691,0.141-3.205,1.091-4.028,2.576c-2.924,5.281-10.646,20.412-16.983,58.151
						c-9.657,57.514,45.165,66.452,33.997,72.089c-77.887,39.313-221.311,30.38-212.993,14.023
						c6.84-13.449,85.538-48.264,92.86-142.859c4.566-58.988-78.039-63.834-18.516-176.118
						C742.611,1100.155,772.561,1093.897,798.549,1094.018z"/>
					<path d="M723.199,1462.395c-35.677,0-63.791-4.532-70.259-11.023c-2.251-2.256-2.782-5.044-1.458-7.646
						c1.917-3.771,7.308-7.993,15.467-14.382c24.998-19.577,71.53-56.018,77.043-127.232c1.576-20.37-7.998-34.131-18.136-48.701
						c-18.154-26.091-38.729-55.664-0.004-128.709c11.795-22.25,36.674-33.998,71.97-33.998c0.248,0,0.496,0,0.744,0.002
						c27.693,0.129,53.598,15.202,67.605,39.332c11.644,20.055,12.821,22.962,13.209,23.915c0.349,0.863,0.755,1.99,1.24,3.344
						c3.116,8.681,9.598,26.746,27.348,44.313c3.286,3.254,3.651,8.407,0.847,11.989l-13.451,17.209
						c-0.356,0.455-0.498,1.016-0.401,1.576c0.356,2.033,1.057,5.397,1.869,9.291c4.901,23.495,7.049,36.283,5.195,40.986
						c-5.555,14.085-34.938,17.998-47.313,19.029c-0.602,0.05-1.128,0.377-1.404,0.878c-8.336,15.053-13.636,39.358-16.614,57.095
						c-6.281,37.4,15.81,52.846,27.678,61.145c5.052,3.532,8.101,5.664,7.862,9.02c-0.091,1.257-0.737,3.032-3.316,4.332
						C827.963,1454.833,769.274,1462.395,723.199,1462.395z M657.487,1446.542c0.353,0.423,1.617,1.57,5.645,2.973
						c27.999,9.753,135.213,11.974,201.276-20.508c-1.067-0.837-2.544-1.872-3.832-2.771c-12.135-8.485-37.387-26.14-30.414-67.668
						c4.457-26.544,10.296-46.465,17.352-59.209c1.352-2.441,3.838-4.039,6.652-4.271c17.093-1.421,38.271-6.165,41.698-14.857
						c1.451-3.802-3.433-27.208-5.518-37.204c-0.824-3.952-1.535-7.366-1.908-9.505c-0.418-2.398,0.205-4.873,1.708-6.794
						l13.451-17.209c0.744-0.953,0.623-2.299-0.289-3.2c-18.818-18.626-25.642-37.646-28.922-46.787
						c-0.451-1.251-0.821-2.294-1.145-3.092c-0.52-1.281-2.872-5.979-12.797-23.079c-12.834-22.108-36.555-35.915-61.908-36.033
						c-0.231-0.002-0.459-0.002-0.692-0.002c-22.971,0-52.818,5.348-66.139,30.474c-36.831,69.479-18.315,96.089-0.41,121.824
						c10.354,14.882,21.06,30.27,19.301,52.999c-5.738,74.12-53.762,111.729-79.562,131.933
						C664.547,1439.637,658.923,1444.04,657.487,1446.542z"/>
				</g>
				<path d="M843.965,1184.947l31.158-38.999c15.987-20.011,10.4-49.483-11.727-62.382c-6.13-3.574-13.339-7.313-21.389-10.778
					c-80.023-34.456-171.709,22.406-171.798,109.531c-0.036,35.657,23.809,77,74.48,113.736c0,0,35.605-28.078,35.151-58.449
					c0,0-25.837-30.655,10.57-46.17c6.97-2.97,14.925-2.736,21.721,0.612C823.094,1197.449,836.337,1194.495,843.965,1184.947z"/>
				<path d="M796.488,1254.88c-10.357,0-23.576-4.418-33.407-23.005c-0.854-1.617-0.237-3.62,1.38-4.476
					c1.619-0.854,3.62-0.237,4.477,1.38c15.514,29.336,39.869,17.131,40.9,16.597c1.624-0.845,3.62-0.216,4.466,1.401
					c0.845,1.619,0.229,3.612-1.386,4.464C812.77,1251.318,805.784,1254.88,796.488,1254.88z"/>
				<path d="M711.919,1099.61c0,0-27.026-93.479-125.609-75.883c-61.544,10.985-115.298,52.338-144.83,119.835
					c-21.849,49.936-20.943,94.138-25.75,146.484c-4.299,46.822-45.995,78.096-55.438,122.62
					c-11.527,54.364,41.374,93.57,92.353,83.466c56.943-11.286,109.773-70.809,133.086-120.688
					c24.092-51.548,28.072-108.809,40.256-163.656c5.278-23.76,9.271-56.576,28.189-73.033c9.709-8.447,41.651-9.379,47.183-19.611
					C701.367,1119.13,711.919,1099.61,711.919,1099.61z"/>
			</g>
		</g>
	</g>
</g>
</svg>
